<svg xmlns="http://www.w3.org/2000/svg" width="400" height="300" viewBox="0 0 400 300"><rect width="100%" height="100%" fill="#DDDDDD"/><path fill="#999999" d="M87.3 154.72h11.66v-12.54q0-1.77.24-3.92zm17.36 0h4.82v3.79q0 .53-.35.91-.34.39-.98.39h-3.49v9.35h-5.7v-9.35H82.79q-.66 0-1.16-.42-.51-.41-.64-1.02l-.69-3.31 18.16-24.25h6.2zm35.59-4.72q0 5.01-1.08 8.71-1.07 3.69-2.97 6.1-1.89 2.42-4.47 3.59-2.59 1.18-5.58 1.18-3 0-5.55-1.18-2.56-1.17-4.44-3.59-1.88-2.41-2.94-6.1-1.06-3.7-1.06-8.71 0-5.03 1.06-8.72 1.06-3.68 2.94-6.09t4.44-3.59q2.55-1.18 5.55-1.18 2.99 0 5.58 1.18 2.58 1.18 4.47 3.59 1.9 2.41 2.97 6.09 1.08 3.69 1.08 8.72m-6.76 0q0-4.16-.61-6.89t-1.63-4.35q-1.02-1.61-2.35-2.26-1.32-.65-2.75-.65-1.41 0-2.72.65t-2.32 2.26q-1 1.62-1.6 4.35t-.6 6.89.6 6.89 1.6 4.35q1.01 1.61 2.32 2.26t2.72.65q1.43 0 2.75-.65 1.33-.65 2.35-2.26 1.02-1.62 1.63-4.35t.61-6.89m37.5 0q0 5.01-1.08 8.71-1.07 3.69-2.97 6.1-1.89 2.42-4.47 3.59-2.59 1.18-5.58 1.18-3 0-5.55-1.18-2.56-1.17-4.44-3.59-1.88-2.41-2.94-6.1-1.06-3.7-1.06-8.71 0-5.03 1.06-8.72 1.06-3.68 2.94-6.09t4.44-3.59q2.55-1.18 5.55-1.18 2.99 0 5.58 1.18 2.58 1.18 4.47 3.59 1.9 2.41 2.97 6.09 1.08 3.69 1.08 8.72m-6.76 0q0-4.16-.61-6.89t-1.63-4.35q-1.02-1.61-2.35-2.26-1.32-.65-2.75-.65-1.41 0-2.72.65t-2.32 2.26q-1 1.62-1.6 4.35t-.6 6.89.6 6.89 1.6 4.35q1.01 1.61 2.32 2.26t2.72.65q1.43 0 2.75-.65 1.33-.65 2.35-2.26 1.02-1.62 1.63-4.35t.61-6.89m48.84 10.39-3.47 3.42-8.99-8.99-9.06 9.04-3.47-3.42 9.06-9.09-8.64-8.64 3.45-3.44 8.64 8.64 8.58-8.59 3.5 3.45-8.61 8.61zm22.05-18.26-3.45-.61q.4-2.76 1.54-4.84t2.85-3.47 3.92-2.09 4.76-.7q2.65 0 4.78.75 2.13.76 3.64 2.1 1.51 1.33 2.32 3.14.81 1.8.81 3.89 0 1.83-.41 3.22t-1.18 2.43q-.77 1.03-1.91 1.75-1.14.71-2.57 1.19 3.45 1.08 5.14 3.31 1.7 2.23 1.7 5.59 0 2.86-1.06 5.06t-2.86 3.7q-1.81 1.5-4.18 2.27-2.37.76-5.02.76-2.89 0-5.03-.66-2.15-.66-3.74-1.96t-2.7-3.18q-1.12-1.88-1.91-4.35l2.89-1.19q1.14-.47 2.13-.25.99.23 1.44 1.07.48.93 1.05 1.83t1.37 1.61q.79.7 1.86 1.13 1.08.44 2.56.44 1.67 0 2.92-.54 1.24-.54 2.08-1.42.83-.87 1.24-1.95.41-1.07.41-2.16 0-1.37-.29-2.5t-1.22-1.92q-.93-.8-2.66-1.25-1.74-.45-4.65-.45v-4.66q2.41-.03 4-.45 1.59-.43 2.53-1.18.94-.76 1.31-1.82t.37-2.33q0-2.7-1.51-4.11-1.51-1.4-4.03-1.4-1.16 0-2.14.33t-1.76.93q-.79.59-1.32 1.39-.53.79-.79 1.75-.45 1.22-1.18 1.61-.73.4-2.05.19m53.84 7.87q0 5.01-1.07 8.71-1.07 3.69-2.97 6.1-1.89 2.42-4.48 3.59-2.58 1.18-5.57 1.18-3 0-5.56-1.18-2.55-1.17-4.43-3.59-1.89-2.41-2.95-6.1-1.06-3.7-1.06-8.71 0-5.03 1.06-8.72 1.06-3.68 2.95-6.09 1.88-2.41 4.43-3.59 2.56-1.18 5.56-1.18 2.99 0 5.57 1.18 2.59 1.18 4.48 3.59 1.9 2.41 2.97 6.09 1.07 3.69 1.07 8.72m-6.75 0q0-4.16-.61-6.89t-1.63-4.35q-1.02-1.61-2.35-2.26-1.32-.65-2.75-.65-1.41 0-2.72.65t-2.32 2.26q-1.01 1.62-1.6 4.35-.6 2.73-.6 6.89t.6 6.89q.59 2.73 1.6 4.35 1.01 1.61 2.32 2.26t2.72.65q1.43 0 2.75-.65 1.33-.65 2.35-2.26 1.02-1.62 1.63-4.35t.61-6.89m37.49 0q0 5.01-1.07 8.71-1.07 3.69-2.97 6.1-1.89 2.42-4.48 3.59-2.58 1.18-5.57 1.18-3 0-5.56-1.18-2.55-1.17-4.43-3.59-1.89-2.41-2.95-6.1-1.06-3.7-1.06-8.71 0-5.03 1.06-8.72 1.06-3.68 2.95-6.09 1.88-2.41 4.43-3.59 2.56-1.18 5.56-1.18 2.99 0 5.57 1.18 2.59 1.18 4.48 3.59 1.9 2.41 2.97 6.09 1.07 3.69 1.07 8.72m-6.75 0q0-4.16-.61-6.89t-1.63-4.35q-1.02-1.61-2.35-2.26-1.32-.65-2.75-.65-1.41 0-2.72.65t-2.32 2.26q-1.01 1.62-1.6 4.35-.6 2.73-.6 6.89t.6 6.89q.59 2.73 1.6 4.35 1.01 1.61 2.32 2.26t2.72.65q1.43 0 2.75-.65 1.33-.65 2.35-2.26 1.02-1.62 1.63-4.35t.61-6.89"/></svg>